<svg width="31" height="32" viewBox="0 0 31 32" fill="none" xmlns="http://www.w3.org/2000/svg">
<g id="fluent:people-20-filled">
<path id="Vector" d="M10.4625 16C11.7985 16 13.0798 15.4521 14.0245 14.477C14.9692 13.5018 15.5 12.1791 15.5 10.8C15.5 9.42088 14.9692 8.09824 14.0245 7.12305C13.0798 6.14786 11.7985 5.60001 10.4625 5.60001C9.12642 5.60001 7.84512 6.14786 6.9004 7.12305C5.95569 8.09824 5.42495 9.42088 5.42495 10.8C5.42495 12.1791 5.95569 13.5018 6.9004 14.477C7.84512 15.4521 9.12642 16 10.4625 16ZM19.2773 24.232C20.0988 24.5792 21.1435 24.8 22.4734 24.8C28.6734 24.8 28.6734 20 28.6734 20C28.6734 19.3638 28.4287 18.7536 27.993 18.3035C27.5573 17.8535 26.9663 17.6004 26.35 17.6H19.1766C19.7857 18.3616 20.1515 19.336 20.1515 20.4V20.9696C20.1483 21.1043 20.1395 21.2389 20.1252 21.3728C20.0206 22.3725 19.7318 23.3427 19.2773 24.232ZM26.35 12C26.35 13.0609 25.9417 14.0783 25.215 14.8284C24.4883 15.5786 23.5027 16 22.475 16C21.4472 16 20.4616 15.5786 19.7349 14.8284C19.0082 14.0783 18.6 13.0609 18.6 12C18.6 10.9391 19.0082 9.92172 19.7349 9.17158C20.4616 8.42143 21.4472 8.00001 22.475 8.00001C23.5027 8.00001 24.4883 8.42143 25.215 9.17158C25.9417 9.92172 26.35 10.9391 26.35 12ZM2.32495 20.8C2.32495 19.9513 2.65156 19.1374 3.23292 18.5373C3.81428 17.9371 4.60278 17.6 5.42495 17.6H15.5C16.3221 17.6 17.1106 17.9371 17.692 18.5373C18.2733 19.1374 18.6 19.9513 18.6 20.8C18.6 20.8 18.6 27.2 10.4625 27.2C2.32495 27.2 2.32495 20.8 2.32495 20.8Z" fill="white"/>
</g>
</svg>
