<svg width="21" height="22" viewBox="0 0 21 22" fill="none" xmlns="http://www.w3.org/2000/svg">
<g id="game-icons:self-love" clip-path="url(#clip0_18_1357)">
<path id="Vector" d="M11.4259 1.76144L10.2673 3.54411C8.77224 2.3348 6.66026 1.95992 5.01898 2.29608C2.78539 2.75341 0.910609 4.77125 1.00376 7.688C1.10195 10.7623 3.24772 13.0081 5.30588 14.8585C6.33497 15.7835 7.39112 16.6257 8.17403 17.3824C9.7197 18.7794 10.4685 21.1708 10.4685 21.1708C10.4685 21.1708 11.4748 18.7303 12.763 17.497C13.5707 16.73 14.6364 15.8723 15.6884 14.9159C17.7924 13.0027 19.9706 10.6488 19.8759 7.63074C19.8759 2.6142 14.9048 2.66732 12.99 4.41122C13.7826 3.99179 14.6356 3.90275 15.4017 4.07432C16.8084 4.38944 17.9731 5.54821 18.0403 7.68812C18.1044 9.73562 16.437 11.7113 14.4264 13.5392C13.4212 14.453 12.3858 15.2801 11.501 16.1203C11.0311 16.5667 10.8144 16.9617 10.4685 17.4244C10.1224 16.9329 9.90808 16.5193 9.43599 16.063C7.16603 13.4808 3.55948 10.6948 3.41535 7.6307C3.38582 5.07871 6.3727 4.40671 7.97818 5.53726L6.09457 6.57323C8.85874 7.03031 11.2111 8.10558 13.707 9.67352L11.4258 1.76144H11.4259Z" fill="#3290FF"/>
</g>
<defs>
<clipPath id="clip0_18_1357">
<rect width="21" height="21" fill="white" transform="translate(0 0.913574)"/>
</clipPath>
</defs>
</svg>
