<svg width="17" height="18" viewBox="0 0 17 18" fill="none" xmlns="http://www.w3.org/2000/svg">
<g id="material-symbols:topic">
<path id="Vector" d="M2.83329 15.0803C2.44371 15.0803 2.11009 14.9414 1.83242 14.6638C1.55475 14.3861 1.41615 14.0527 1.41663 13.6636V5.16359C1.41663 4.774 1.55546 4.44038 1.83313 4.16271C2.11079 3.88504 2.44418 3.74645 2.83329 3.74692H7.08329L8.49996 5.16359H14.1666C14.5562 5.16359 14.8898 5.30242 15.1675 5.58009C15.4452 5.85775 15.5838 6.19114 15.5833 6.58025V13.6636C15.5833 14.0532 15.4445 14.3868 15.1668 14.6645C14.8891 14.9421 14.5557 15.0807 14.1666 15.0803H2.83329ZM4.24996 9.41359H12.75V7.99692H4.24996V9.41359ZM4.24996 12.2469H9.91663V10.8303H4.24996V12.2469Z" fill="#494949"/>
</g>
</svg>
