<svg width="30" height="30" viewBox="0 0 30 30" fill="none" xmlns="http://www.w3.org/2000/svg">
<g id="mingcute:star-fill" clip-path="url(#clip0_26_1674)">
<g id="Group">
<path id="Vector" d="M13.65 3.585C13.7876 3.34895 13.9846 3.15309 14.2215 3.01697C14.4584 2.88084 14.7268 2.8092 15 2.8092C15.2732 2.8092 15.5417 2.88084 15.7786 3.01697C16.0154 3.15309 16.2125 3.34895 16.35 3.585L19.8438 9.5825L26.6288 11.0525C26.8957 11.1105 27.1427 11.2374 27.3452 11.4207C27.5478 11.6039 27.6988 11.837 27.7831 12.0968C27.8675 12.3565 27.8823 12.6339 27.826 12.9011C27.7698 13.1684 27.6444 13.4163 27.4625 13.62L22.8375 18.7962L23.5375 25.7025C23.5652 25.9744 23.5209 26.2489 23.4093 26.4984C23.2977 26.7479 23.1226 26.9638 22.9015 27.1244C22.6803 27.2851 22.4209 27.385 22.1491 27.414C21.8773 27.4431 21.6026 27.4003 21.3525 27.29L15 24.49L8.64754 27.29C8.39744 27.4003 8.12278 27.4431 7.85099 27.414C7.57919 27.385 7.31977 27.2851 7.09863 27.1244C6.87749 26.9638 6.70237 26.7479 6.59075 26.4984C6.47914 26.2489 6.43493 25.9744 6.46254 25.7025L7.16254 18.7962L2.53754 13.6212C2.35533 13.4175 2.22974 13.1696 2.17331 12.9021C2.11688 12.6347 2.13159 12.3572 2.21597 12.0972C2.30035 11.8372 2.45145 11.6039 2.65418 11.4206C2.8569 11.2373 3.10417 11.1104 3.37129 11.0525L10.1563 9.5825L13.65 3.585Z" fill="white"/>
</g>
</g>
<defs>
<clipPath id="clip0_26_1674">
<rect width="30" height="30" fill="white"/>
</clipPath>
</defs>
</svg>
